# xmcd
#
# Track frame offsets: 
#        150
#        16394
#        37378
#        53623
#        73979
#        88220
#        109690
#        118432
#        137044
#        154889
#        169703
#
# Disc length: 2602 seconds
#
# Revision: 0
# Processed by: cddbd v1.5.1PL2 Copyright (c) Steve Scherf et al.
# Submitted via: ExactAudioCopy v0.95b3
#
DISCID=a20a280b
DTITLE=Diablo - Mimic47
DYEAR=2006
DGENRE=Metal
TTITLE0=Shadow World
TTITLE1=Damien
TTITLE2=Together As Lost
TTITLE3=In Sorrow We Trust
TTITLE4=Mimic47
TTITLE5=Condition Red
TTITLE6=Kalla
TTITLE7=Blackheart
TTITLE8=Kathryn
TTITLE9=Rebellion Of One
TTITLE10=D.O.A.
EXTD=
EXTT0=
EXTT1=
EXTT2=
EXTT3=
EXTT4=
EXTT5=
EXTT6=
EXTT7=
EXTT8=
EXTT9=
EXTT10=
PLAYORDER=
